<svg width="186" height="296" viewBox="0 0 186 296" fill="none" xmlns="http://www.w3.org/2000/svg">
<path d="M185.344 92.6665C185.344 95.4075 184.3 98.1595 182.195 100.259C178.001 104.453 171.214 104.453 167.02 100.259L92.6725 25.9075L18.3205 100.259C14.1265 104.453 7.3335 104.453 3.1455 100.259C-1.0485 96.0655 -1.0485 89.2725 3.1455 85.0795L85.0795 3.1455C89.2735 -1.0485 96.0665 -1.0485 100.254 3.1455L182.193 85.0795C184.293 87.1725 185.344 89.9195 185.344 92.6665Z" fill="white"/>
<path d="M185.344 284.666C185.344 287.407 184.3 290.159 182.195 292.259C178.001 296.453 171.214 296.453 167.02 292.259L92.6725 217.907L18.3205 292.259C14.1265 296.453 7.3335 296.453 3.1455 292.259C-1.0485 288.065 -1.0485 281.272 3.1455 277.079L85.0795 195.145C89.2735 190.951 96.0665 190.951 100.254 195.145L182.193 277.079C184.293 279.172 185.344 281.919 185.344 284.666Z" fill="white"/>
<path d="M185.344 181.667C185.344 184.408 184.3 187.16 182.195 189.26C178.001 193.454 171.214 193.454 167.02 189.26L92.6725 114.908L18.3205 189.26C14.1265 193.454 7.3335 193.454 3.1455 189.26C-1.0485 185.066 -1.0485 178.273 3.1455 174.08L85.0795 92.1455C89.2735 87.9515 96.0665 87.9515 100.254 92.1455L182.193 174.08C184.293 176.173 185.344 178.92 185.344 181.667Z" fill="white"/>
</svg>
