<svg width="509" height="1031" viewBox="0 0 509 1031" fill="none" xmlns="http://www.w3.org/2000/svg">
<path d="M7.91016 240.82C2.92969 245.508 0 252.246 0 259.863C0 275.098 11.4258 286.523 26.6602 286.523C34.2773 286.523 41.3086 283.887 45.7031 278.906L270.117 49.8047H238.77L463.184 278.906C467.871 283.887 474.902 286.523 482.227 286.523C497.461 286.523 508.887 275.098 508.887 259.863C508.887 252.246 505.957 245.508 500.977 240.82L274.219 8.78906C269.238 3.22266 261.914 0 254.59 0C246.973 0 239.941 3.22266 234.668 8.78906L7.91016 240.82Z" fill="white" fill-opacity="0.85"/>
<path d="M7.91016 960.82C2.92969 965.508 0 972.246 0 979.863C0 995.098 11.4258 1006.52 26.6602 1006.52C34.2773 1006.52 41.3086 1003.89 45.7031 998.906L270.117 769.805H238.77L463.184 998.906C467.871 1003.89 474.902 1006.52 482.227 1006.52C497.461 1006.52 508.887 995.098 508.887 979.863C508.887 972.246 505.957 965.508 500.977 960.82L274.219 728.789C269.238 723.223 261.914 720 254.59 720C246.973 720 239.941 723.223 234.668 728.789L7.91016 960.82Z" fill="white" fill-opacity="0.85"/>
<path d="M7.91016 600.82C2.92969 605.508 0 612.246 0 619.863C0 635.098 11.4258 646.523 26.6602 646.523C34.2773 646.523 41.3086 643.887 45.7031 638.906L270.117 409.805H238.77L463.184 638.906C467.871 643.887 474.902 646.523 482.227 646.523C497.461 646.523 508.887 635.098 508.887 619.863C508.887 612.246 505.957 605.508 500.977 600.82L274.219 368.789C269.238 363.223 261.914 360 254.59 360C246.973 360 239.941 363.223 234.668 368.789L7.91016 600.82Z" fill="white" fill-opacity="0.85"/>
</svg>
