<?xml version="1.0" encoding="UTF-8"?>
<!--Generator: Apple Native CoreSVG 175.5-->
<!DOCTYPE svg
PUBLIC "-//W3C//DTD SVG 1.1//EN"
       "http://www.w3.org/Graphics/SVG/1.1/DTD/svg11.dtd">
<svg version="1.1" xmlns="http://www.w3.org/2000/svg" xmlns:xlink="http://www.w3.org/1999/xlink" width="22.2173" height="18.9961">
 <g>
  <rect height="18.9961" opacity="0" width="22.2173" x="0" y="0"/>
  <path d="M4.36966 18.9961L21.2798 18.9961C21.7954 18.9961 22.2173 18.5742 22.2173 18.0586C22.2173 17.543 21.7954 17.1094 21.2798 17.1094L6.2681 17.1094ZM3.19778 17.918L15.9829 5.14453L13.9322 3.08203L1.13528 15.8672L0.0220026 18.4688C-0.0834662 18.75 0.209503 19.0781 0.490753 18.9609ZM17.0142 4.13672L18.1978 2.97656C18.7954 2.37891 18.8189 1.73438 18.2915 1.19531L17.8931 0.796875C17.3658 0.269531 16.7212 0.328125 16.1236 0.902344L14.94 2.07422Z" fill="#ffffff" fill-opacity="0.85"/>
 </g>
</svg>
