<svg
            width=""
            height=""
            viewBox="0 0 350 8"
            fill="none"
            xmlns="http://www.w3.org/2000/svg"
          >
            <path
              d="M0.395508 0.875977L4.77246 0.875977L4.81641 2.77441L4.08691 2.77441L4.00781 1.59668H1.88965L1.88965 2.94141H2.92676V2.30859H3.65625L3.65625 4.28613H2.92676V3.66211H1.88965L1.88965 5.2793H4.08691L4.13086 4.09277L4.86035 4.09277V6H0.395508L0.395508 5.2793H1.125L1.125 1.59668H0.395508L0.395508 0.875977ZM5.37012 2.01855H7.52344V2.73926H6.93457L7.93652 4.92773L8.95605 2.73926H8.38477V2.01855H10.4502V2.73926H9.76465L8.22656 6H7.60254L6.06445 2.73926H5.37012V2.01855ZM15.2578 4.73438L15.6094 5.41113C14.7891 5.88574 14.0303 6.12305 13.333 6.12305C12.6299 6.12305 12.0791 5.9209 11.6807 5.5166C11.2822 5.1123 11.083 4.61719 11.083 4.03125C11.083 3.43945 11.2822 2.93555 11.6807 2.51953C12.085 2.10352 12.6152 1.89551 13.2715 1.89551C13.9219 1.89551 14.4316 2.08887 14.8008 2.47559C15.1758 2.85645 15.3633 3.28418 15.3633 3.75879C15.3633 3.95801 15.3545 4.13672 15.3369 4.29492L11.8916 4.29492C11.9209 4.41797 11.9531 4.52344 11.9883 4.61133C12.0293 4.69336 12.0967 4.80176 12.1904 4.93652C12.29 5.07129 12.4365 5.17676 12.6299 5.25293C12.8232 5.3291 13.0518 5.36719 13.3154 5.36719C13.8955 5.36719 14.543 5.15625 15.2578 4.73438ZM11.9443 3.57422L14.5547 3.57422C14.3906 2.95898 13.9658 2.65137 13.2803 2.65137C12.6182 2.65137 12.1729 2.95898 11.9443 3.57422ZM16.4443 2.01855H18.1846V2.66895C18.3486 2.51074 18.4863 2.3877 18.5977 2.2998C18.7148 2.21191 18.8818 2.12402 19.0986 2.03613C19.3154 1.94238 19.541 1.89551 19.7754 1.89551C19.9805 1.89551 20.1709 1.93066 20.3467 2.00098C20.5225 2.07129 20.6455 2.13574 20.7158 2.19434C20.7861 2.25293 20.8711 2.33203 20.9707 2.43164L20.1885 3.0293C20.042 2.77734 19.8545 2.65137 19.626 2.65137C19.5557 2.65137 19.4795 2.66602 19.3975 2.69531C19.3213 2.71875 19.2451 2.75098 19.1689 2.79199C19.0928 2.83301 19.0137 2.88281 18.9316 2.94141C18.8555 3 18.7852 3.05859 18.7207 3.11719C18.6562 3.16992 18.5889 3.22852 18.5186 3.29297C18.4541 3.35742 18.4014 3.41016 18.3604 3.45117C18.3193 3.49219 18.2812 3.5332 18.2461 3.57422L18.1846 3.63574V5.2793H19.8105V6H16.3652V5.2793H17.4199V2.73926H16.4443V2.01855ZM21.2168 2.01855L23.1416 2.01855V2.73926H22.667L23.7393 4.7959L24.917 2.73926H24.46V2.01855H26.3496V2.73926H25.7959L23.5898 6.58008H24.249V7.30078H21.3486V6.58008H22.7109L23.291 5.58691L21.7969 2.73926L21.2168 2.73926V2.01855ZM36.8262 4.43555L37.3359 4.99805C36.5508 5.75977 35.7363 6.14063 34.8926 6.14063C34.1367 6.14063 33.5361 5.87695 33.0908 5.34961C32.6455 4.82227 32.4229 4.16602 32.4229 3.38086C32.4229 2.57813 32.6602 1.93652 33.1348 1.45605C33.6152 0.969727 34.1455 0.726563 34.7256 0.726563C34.9248 0.726563 35.1094 0.758789 35.2793 0.823242C35.4492 0.881836 35.5781 0.943359 35.666 1.00781C35.7539 1.07227 35.8652 1.16309 36 1.28027L36.0527 0.788086L36.7822 0.788086C36.7529 1.15723 36.7383 1.44141 36.7383 1.64063C36.7383 1.97461 36.7676 2.34082 36.8262 2.73926L36.0967 2.83594C36.0732 2.67773 36.0527 2.55762 36.0352 2.47559C36.0176 2.3877 35.9795 2.27051 35.9209 2.12402C35.8623 1.97754 35.792 1.86621 35.71 1.79004C35.6338 1.70801 35.5195 1.6377 35.3672 1.5791C35.2207 1.51465 35.0479 1.48242 34.8486 1.48242C34.4033 1.48242 34.0225 1.65234 33.7061 1.99219C33.3896 2.32617 33.2314 2.78613 33.2314 3.37207C33.2314 3.92871 33.3721 4.40332 33.6533 4.7959C33.9346 5.18848 34.3447 5.38477 34.8838 5.38477C35.1592 5.38477 35.4375 5.32324 35.7188 5.2002C36 5.07715 36.208 4.96289 36.3428 4.85742C36.4834 4.74609 36.6445 4.60547 36.8262 4.43555ZM37.8633 2.01855L39.6035 2.01855V2.66895C39.7676 2.51074 39.9053 2.3877 40.0166 2.2998C40.1338 2.21191 40.3008 2.12402 40.5176 2.03613C40.7344 1.94238 40.96 1.89551 41.1943 1.89551C41.3994 1.89551 41.5898 1.93066 41.7656 2.00098C41.9414 2.07129 42.0645 2.13574 42.1348 2.19434C42.2051 2.25293 42.29 2.33203 42.3896 2.43164L41.6074 3.0293C41.4609 2.77734 41.2734 2.65137 41.0449 2.65137C40.9746 2.65137 40.8984 2.66602 40.8164 2.69531C40.7402 2.71875 40.6641 2.75098 40.5879 2.79199C40.5117 2.83301 40.4326 2.88281 40.3506 2.94141C40.2744 3 40.2041 3.05859 40.1396 3.11719C40.0752 3.16992 40.0078 3.22852 39.9375 3.29297C39.873 3.35742 39.8203 3.41016 39.7793 3.45117C39.7383 3.49219 39.7002 3.5332 39.665 3.57422L39.6035 3.63574V5.2793H41.2295V6H37.7842V5.2793H38.8389V2.73926H37.8633V2.01855ZM47.2236 4.73438L47.5752 5.41113C46.7549 5.88574 45.9961 6.12305 45.2988 6.12305C44.5957 6.12305 44.0449 5.9209 43.6465 5.5166C43.248 5.1123 43.0488 4.61719 43.0488 4.03125C43.0488 3.43945 43.248 2.93555 43.6465 2.51953C44.0508 2.10352 44.5811 1.89551 45.2373 1.89551C45.8877 1.89551 46.3975 2.08887 46.7666 2.47559C47.1416 2.85645 47.3291 3.28418 47.3291 3.75879C47.3291 3.95801 47.3203 4.13672 47.3027 4.29492H43.8574C43.8867 4.41797 43.9189 4.52344 43.9541 4.61133C43.9951 4.69336 44.0625 4.80176 44.1562 4.93652C44.2559 5.07129 44.4023 5.17676 44.5957 5.25293C44.7891 5.3291 45.0176 5.36719 45.2812 5.36719C45.8613 5.36719 46.5088 5.15625 47.2236 4.73438ZM43.9102 3.57422H46.5205C46.3564 2.95898 45.9316 2.65137 45.2461 2.65137C44.584 2.65137 44.1387 2.95898 43.9102 3.57422ZM51.9609 3.30176V5.2793H52.7168V6H51.1963V5.57813C50.6982 5.94141 50.2148 6.12305 49.7461 6.12305C49.3008 6.12305 48.9316 5.98535 48.6387 5.70996C48.3516 5.42871 48.208 5.10938 48.208 4.75195C48.208 4.60547 48.2402 4.45605 48.3047 4.30371C48.3691 4.14551 48.4717 3.99023 48.6123 3.83789C48.7529 3.67969 48.9609 3.55078 49.2363 3.45117C49.5117 3.35156 49.8311 3.30176 50.1943 3.30176C50.4404 3.30176 50.7744 3.3252 51.1963 3.37207C51.1963 3.26074 51.1904 3.17578 51.1787 3.11719C51.167 3.05273 51.1377 2.97363 51.0908 2.87988C51.0439 2.78027 50.9561 2.70703 50.8271 2.66016C50.7041 2.61328 50.54 2.58984 50.335 2.58984C49.9307 2.58984 49.418 2.72461 48.7969 2.99414L48.498 2.29102C49.2422 1.98633 49.8574 1.83398 50.3438 1.83398C50.8887 1.83398 51.293 1.96289 51.5566 2.2207C51.8262 2.47266 51.9609 2.83301 51.9609 3.30176ZM51.1963 4.57617V4.11914C50.7451 4.05469 50.4404 4.02246 50.2822 4.02246C50.0479 4.02246 49.8457 4.0459 49.6758 4.09277C49.5059 4.13965 49.377 4.19238 49.2891 4.25098C49.207 4.30957 49.1426 4.37988 49.0957 4.46191C49.0488 4.53809 49.0195 4.59961 49.0078 4.64648C49.002 4.6875 48.999 4.72559 48.999 4.76074C48.999 4.91895 49.0723 5.05957 49.2188 5.18262C49.3711 5.30566 49.5439 5.36719 49.7373 5.36719C50.2354 5.36719 50.7217 5.10352 51.1963 4.57617ZM54.457 0.875977H55.2217V2.10645L57.2256 2.10645V2.82715L55.2217 2.82715V4.30371C55.2217 4.46777 55.2217 4.58496 55.2217 4.65527C55.2275 4.72559 55.2422 4.81934 55.2656 4.93652C55.2891 5.04785 55.3213 5.12695 55.3623 5.17383C55.4092 5.2207 55.4766 5.26465 55.5645 5.30566C55.6582 5.34668 55.7725 5.36719 55.9072 5.36719C56.0713 5.36719 56.2412 5.34668 56.417 5.30566C56.5928 5.26465 56.7334 5.22363 56.8389 5.18262C56.9502 5.1416 57.1201 5.07422 57.3486 4.98047L57.6299 4.86621L57.9199 5.56055C57.1055 5.93555 56.458 6.12305 55.9775 6.12305C55.4678 6.12305 55.084 5.99121 54.8262 5.72754C54.668 5.55762 54.5654 5.36426 54.5186 5.14746C54.4775 4.9248 54.457 4.64355 54.457 4.30371V2.82715H53.877V2.10645H54.457V0.875977ZM58.6934 3.97852C58.6934 3.375 58.8984 2.86816 59.3086 2.45801C59.7246 2.04199 60.2783 1.83398 60.9697 1.83398C61.6729 1.83398 62.2266 2.04492 62.6309 2.4668C63.041 2.88867 63.2461 3.39258 63.2461 3.97852C63.2461 4.55273 63.0469 5.05371 62.6484 5.48145C62.25 5.90918 61.6904 6.12305 60.9697 6.12305C60.2607 6.12305 59.7041 5.91211 59.2998 5.49023C58.8955 5.06836 58.6934 4.56445 58.6934 3.97852ZM59.502 3.97852C59.502 4.35938 59.6309 4.6875 59.8887 4.96289C60.1523 5.23242 60.5127 5.36719 60.9697 5.36719C61.4385 5.36719 61.7988 5.22949 62.0508 4.9541C62.3086 4.67871 62.4375 4.35352 62.4375 3.97852C62.4375 3.60352 62.3086 3.27832 62.0508 3.00293C61.7988 2.72754 61.4385 2.58984 60.9697 2.58984C60.5068 2.58984 60.1465 2.72461 59.8887 2.99414C59.6309 3.26367 59.502 3.5918 59.502 3.97852ZM64.2305 2.01855L65.9707 2.01855V2.66895C66.1348 2.51074 66.2725 2.3877 66.3838 2.2998C66.501 2.21191 66.668 2.12402 66.8848 2.03613C67.1016 1.94238 67.3271 1.89551 67.5615 1.89551C67.7666 1.89551 67.957 1.93066 68.1328 2.00098C68.3086 2.07129 68.4316 2.13574 68.502 2.19434C68.5723 2.25293 68.6572 2.33203 68.7568 2.43164L67.9746 3.0293C67.8281 2.77734 67.6406 2.65137 67.4121 2.65137C67.3418 2.65137 67.2656 2.66602 67.1836 2.69531C67.1074 2.71875 67.0312 2.75098 66.9551 2.79199C66.8789 2.83301 66.7998 2.88281 66.7178 2.94141C66.6416 3 66.5713 3.05859 66.5068 3.11719C66.4424 3.16992 66.375 3.22852 66.3047 3.29297C66.2402 3.35742 66.1875 3.41016 66.1465 3.45117C66.1055 3.49219 66.0674 3.5332 66.0322 3.57422L65.9707 3.63574V5.2793H67.5967V6H64.1514V5.2793H65.2061V2.73926L64.2305 2.73926V2.01855ZM78.1348 1.81641L78.8203 1.93066C78.7617 2.22363 78.7324 2.47852 78.7324 2.69531C78.7324 2.88281 78.7617 3.09375 78.8203 3.32813L78.1348 3.4248C78.1113 3.38379 78.0967 3.3457 78.0908 3.31055L78.0205 3.1084C77.915 2.80371 77.5576 2.65137 76.9482 2.65137C76.333 2.65137 76.0254 2.81543 76.0254 3.14355C76.0254 3.24902 76.0547 3.33691 76.1133 3.40723C76.1719 3.47168 76.2686 3.52148 76.4033 3.55664C76.5439 3.5918 76.6523 3.61523 76.7285 3.62695C76.8047 3.63281 76.9336 3.6416 77.1152 3.65332C77.4551 3.67676 77.6836 3.69434 77.8008 3.70605C77.9238 3.71777 78.0645 3.74414 78.2227 3.78516C78.3809 3.82617 78.5098 3.88477 78.6094 3.96094C78.8906 4.17188 79.0312 4.45313 79.0312 4.80469C79.0312 5.17969 78.8672 5.49316 78.5391 5.74512C78.2109 5.99707 77.792 6.12305 77.2822 6.12305C77.0713 6.12305 76.8779 6.09375 76.7021 6.03516C76.5264 5.98242 76.4033 5.93262 76.333 5.88574C76.2627 5.83887 76.1689 5.76855 76.0518 5.6748L75.9463 6.13184L75.2607 6.08789C75.3193 5.73633 75.3486 5.45801 75.3486 5.25293C75.3486 5.04199 75.3193 4.81348 75.2607 4.56738L75.9463 4.48828C76.0049 4.76367 76.1221 4.98047 76.2979 5.13867C76.4736 5.29102 76.7549 5.36719 77.1416 5.36719C77.4697 5.36719 77.7334 5.31738 77.9326 5.21777C78.1377 5.1123 78.2402 4.96875 78.2402 4.78711C78.2402 4.62891 78.1641 4.52637 78.0117 4.47949C77.8652 4.43262 77.5869 4.39746 77.1768 4.37402C76.5264 4.33301 76.0723 4.23633 75.8145 4.08398C75.6445 3.98438 75.5039 3.84961 75.3926 3.67969C75.2871 3.50391 75.2344 3.31641 75.2344 3.11719C75.2344 2.72461 75.4043 2.42285 75.7441 2.21191C76.0898 2.00098 76.459 1.89551 76.8516 1.89551C77.2676 1.89551 77.6572 2.0332 78.0205 2.30859L78.1348 1.81641ZM79.8574 0.427734L81.4746 0.304688V2.3877C81.9375 2.05957 82.3623 1.89551 82.749 1.89551C83.1826 1.89551 83.5312 2.04199 83.7949 2.33496C84.0586 2.62793 84.1904 3.00586 84.1904 3.46875V5.2793H84.9023V6H82.6875V5.2793H83.4258V3.50391C83.4258 3.26367 83.3701 3.06152 83.2588 2.89746C83.1475 2.7334 82.9834 2.65137 82.7666 2.65137C82.4385 2.65137 82.0078 2.85059 81.4746 3.24902V5.2793H82.1426V6H79.9805V5.2793H80.71V1.11328L79.9189 1.16602L79.8574 0.427734ZM85.3857 3.97852C85.3857 3.375 85.5908 2.86816 86.001 2.45801C86.417 2.04199 86.9707 1.83398 87.6621 1.83398C88.3652 1.83398 88.9189 2.04492 89.3232 2.4668C89.7334 2.88867 89.9385 3.39258 89.9385 3.97852C89.9385 4.55273 89.7393 5.05371 89.3408 5.48145C88.9424 5.90918 88.3828 6.12305 87.6621 6.12305C86.9531 6.12305 86.3965 5.91211 85.9922 5.49023C85.5879 5.06836 85.3857 4.56445 85.3857 3.97852ZM86.1943 3.97852C86.1943 4.35938 86.3232 4.6875 86.5811 4.96289C86.8447 5.23242 87.2051 5.36719 87.6621 5.36719C88.1309 5.36719 88.4912 5.22949 88.7432 4.9541C89.001 4.67871 89.1299 4.35352 89.1299 3.97852C89.1299 3.60352 89.001 3.27832 88.7432 3.00293C88.4912 2.72754 88.1309 2.58984 87.6621 2.58984C87.1992 2.58984 86.8389 2.72461 86.5811 2.99414C86.3232 3.26367 86.1943 3.5918 86.1943 3.97852ZM90.4922 2.01855L91.9424 2.01855V4.42676C91.9424 5.05371 92.1826 5.36719 92.6631 5.36719C92.8271 5.36719 92.9854 5.3291 93.1377 5.25293C93.2959 5.17676 93.4102 5.10938 93.4805 5.05078C93.5508 4.98633 93.665 4.875 93.8232 4.7168V2.73926H93.1025V2.01855H94.5879V5.2793L95.2734 5.2793V6L93.8232 6V5.72754C93.4541 5.99121 93.0703 6.12305 92.6719 6.12305C92.4492 6.12305 92.2324 6.08203 92.0215 6C91.8164 5.91211 91.6553 5.79492 91.5381 5.64844C91.2979 5.34961 91.1777 4.94238 91.1777 4.42676V2.73926L90.4922 2.73926V2.01855ZM96.3809 0.454102L98.5869 0.304688V5.2793H100.063V6H96.3457V5.2793H97.8223V1.0957L96.4512 1.18359L96.3809 0.454102ZM103.228 0.489258L105.328 0.304688V5.2793H106.04V6H104.563V5.63086C104.206 5.93555 103.778 6.08789 103.28 6.08789C102.706 6.08789 102.22 5.88574 101.821 5.48145C101.429 5.07129 101.232 4.58789 101.232 4.03125C101.232 3.43945 101.438 2.9502 101.848 2.56348C102.258 2.17676 102.729 1.9834 103.263 1.9834C103.743 1.9834 104.177 2.13574 104.563 2.44043V1.13086L103.148 1.23633L103.228 0.489258ZM104.546 4.04004C104.546 3.71777 104.435 3.42188 104.212 3.15234C103.989 2.87695 103.682 2.73926 103.289 2.73926C102.949 2.73926 102.656 2.85938 102.41 3.09961C102.164 3.33398 102.041 3.6416 102.041 4.02246C102.041 4.39746 102.161 4.71094 102.401 4.96289C102.647 5.20898 102.943 5.33203 103.289 5.33203C103.629 5.33203 103.922 5.20898 104.168 4.96289C104.42 4.7168 104.546 4.40918 104.546 4.04004ZM111.718 0.392578L113.212 0.304688V2.4668C113.604 2.14453 114.035 1.9834 114.504 1.9834C115.078 1.9834 115.567 2.18555 115.972 2.58984C116.382 2.98828 116.587 3.47168 116.587 4.04004C116.587 4.57324 116.391 5.04785 115.998 5.46387C115.611 5.87988 115.125 6.08789 114.539 6.08789C114.053 6.08789 113.61 5.92969 113.212 5.61328V6L111.771 6V5.2793L112.447 5.2793V1.10449L111.771 1.13965L111.718 0.392578ZM113.212 4.03125C113.212 4.38281 113.338 4.6875 113.59 4.94531C113.848 5.20313 114.161 5.33203 114.53 5.33203C114.894 5.33203 115.192 5.20605 115.427 4.9541C115.661 4.70215 115.778 4.39746 115.778 4.04004C115.778 3.68262 115.655 3.37793 115.409 3.12598C115.169 2.86816 114.873 2.73926 114.521 2.73926C114.158 2.73926 113.848 2.86816 113.59 3.12598C113.338 3.38379 113.212 3.68555 113.212 4.03125ZM121.702 4.73438L122.054 5.41113C121.233 5.88574 120.475 6.12305 119.777 6.12305C119.074 6.12305 118.523 5.9209 118.125 5.5166C117.727 5.1123 117.527 4.61719 117.527 4.03125C117.527 3.43945 117.727 2.93555 118.125 2.51953C118.529 2.10352 119.06 1.89551 119.716 1.89551C120.366 1.89551 120.876 2.08887 121.245 2.47559C121.62 2.85645 121.808 3.28418 121.808 3.75879C121.808 3.95801 121.799 4.13672 121.781 4.29492H118.336C118.365 4.41797 118.397 4.52344 118.433 4.61133C118.474 4.69336 118.541 4.80176 118.635 4.93652C118.734 5.07129 118.881 5.17676 119.074 5.25293C119.268 5.3291 119.496 5.36719 119.76 5.36719C120.34 5.36719 120.987 5.15625 121.702 4.73438ZM118.389 3.57422H120.999C120.835 2.95898 120.41 2.65137 119.725 2.65137C119.062 2.65137 118.617 2.95898 118.389 3.57422ZM132.038 3.30176V5.2793H132.794V6H131.273V5.57813C130.775 5.94141 130.292 6.12305 129.823 6.12305C129.378 6.12305 129.009 5.98535 128.716 5.70996C128.429 5.42871 128.285 5.10938 128.285 4.75195C128.285 4.60547 128.317 4.45605 128.382 4.30371C128.446 4.14551 128.549 3.99023 128.689 3.83789C128.83 3.67969 129.038 3.55078 129.313 3.45117C129.589 3.35156 129.908 3.30176 130.271 3.30176C130.518 3.30176 130.852 3.3252 131.273 3.37207C131.273 3.26074 131.268 3.17578 131.256 3.11719C131.244 3.05273 131.215 2.97363 131.168 2.87988C131.121 2.78027 131.033 2.70703 130.904 2.66016C130.781 2.61328 130.617 2.58984 130.412 2.58984C130.008 2.58984 129.495 2.72461 128.874 2.99414L128.575 2.29102C129.319 1.98633 129.935 1.83398 130.421 1.83398C130.966 1.83398 131.37 1.96289 131.634 2.2207C131.903 2.47266 132.038 2.83301 132.038 3.30176ZM131.273 4.57617V4.11914C130.822 4.05469 130.518 4.02246 130.359 4.02246C130.125 4.02246 129.923 4.0459 129.753 4.09277C129.583 4.13965 129.454 4.19238 129.366 4.25098C129.284 4.30957 129.22 4.37988 129.173 4.46191C129.126 4.53809 129.097 4.59961 129.085 4.64648C129.079 4.6875 129.076 4.72559 129.076 4.76074C129.076 4.91895 129.149 5.05957 129.296 5.18262C129.448 5.30566 129.621 5.36719 129.814 5.36719C130.312 5.36719 130.799 5.10352 131.273 4.57617ZM133.137 0.392578L134.631 0.304688V2.4668C135.023 2.14453 135.454 1.9834 135.923 1.9834C136.497 1.9834 136.986 2.18555 137.391 2.58984C137.801 2.98828 138.006 3.47168 138.006 4.04004C138.006 4.57324 137.81 5.04785 137.417 5.46387C137.03 5.87988 136.544 6.08789 135.958 6.08789C135.472 6.08789 135.029 5.92969 134.631 5.61328V6H133.189V5.2793H133.866V1.10449L133.189 1.13965L133.137 0.392578ZM134.631 4.03125C134.631 4.38281 134.757 4.6875 135.009 4.94531C135.267 5.20313 135.58 5.33203 135.949 5.33203C136.312 5.33203 136.611 5.20605 136.846 4.9541C137.08 4.70215 137.197 4.39746 137.197 4.04004C137.197 3.68262 137.074 3.37793 136.828 3.12598C136.588 2.86816 136.292 2.73926 135.94 2.73926C135.577 2.73926 135.267 2.86816 135.009 3.12598C134.757 3.38379 134.631 3.68555 134.631 4.03125ZM139.219 0.454102L141.425 0.304688V5.2793H142.901V6H139.184V5.2793H140.66V1.0957L139.289 1.18359L139.219 0.454102ZM148.395 4.73438L148.746 5.41113C147.926 5.88574 147.167 6.12305 146.47 6.12305C145.767 6.12305 145.216 5.9209 144.817 5.5166C144.419 5.1123 144.22 4.61719 144.22 4.03125C144.22 3.43945 144.419 2.93555 144.817 2.51953C145.222 2.10352 145.752 1.89551 146.408 1.89551C147.059 1.89551 147.568 2.08887 147.938 2.47559C148.312 2.85645 148.5 3.28418 148.5 3.75879C148.5 3.95801 148.491 4.13672 148.474 4.29492H145.028C145.058 4.41797 145.09 4.52344 145.125 4.61133C145.166 4.69336 145.233 4.80176 145.327 4.93652C145.427 5.07129 145.573 5.17676 145.767 5.25293C145.96 5.3291 146.188 5.36719 146.452 5.36719C147.032 5.36719 147.68 5.15625 148.395 4.73438ZM145.081 3.57422H147.691C147.527 2.95898 147.103 2.65137 146.417 2.65137C145.755 2.65137 145.31 2.95898 145.081 3.57422ZM155.953 0.875977H156.718V2.10645H158.722V2.82715H156.718V4.30371C156.718 4.46777 156.718 4.58496 156.718 4.65527C156.724 4.72559 156.738 4.81934 156.762 4.93652C156.785 5.04785 156.817 5.12695 156.858 5.17383C156.905 5.2207 156.973 5.26465 157.061 5.30566C157.154 5.34668 157.269 5.36719 157.403 5.36719C157.567 5.36719 157.737 5.34668 157.913 5.30566C158.089 5.26465 158.229 5.22363 158.335 5.18262C158.446 5.1416 158.616 5.07422 158.845 4.98047L159.126 4.86621L159.416 5.56055C158.602 5.93555 157.954 6.12305 157.474 6.12305C156.964 6.12305 156.58 5.99121 156.322 5.72754C156.164 5.55762 156.062 5.36426 156.015 5.14746C155.974 4.9248 155.953 4.64355 155.953 4.30371V2.82715H155.373V2.10645H155.953V0.875977ZM160.189 3.97852C160.189 3.375 160.395 2.86816 160.805 2.45801C161.221 2.04199 161.774 1.83398 162.466 1.83398C163.169 1.83398 163.723 2.04492 164.127 2.4668C164.537 2.88867 164.742 3.39258 164.742 3.97852C164.742 4.55273 164.543 5.05371 164.145 5.48145C163.746 5.90918 163.187 6.12305 162.466 6.12305C161.757 6.12305 161.2 5.91211 160.796 5.49023C160.392 5.06836 160.189 4.56445 160.189 3.97852ZM160.998 3.97852C160.998 4.35938 161.127 4.6875 161.385 4.96289C161.648 5.23242 162.009 5.36719 162.466 5.36719C162.935 5.36719 163.295 5.22949 163.547 4.9541C163.805 4.67871 163.934 4.35352 163.934 3.97852C163.934 3.60352 163.805 3.27832 163.547 3.00293C163.295 2.72754 162.935 2.58984 162.466 2.58984C162.003 2.58984 161.643 2.72461 161.385 2.99414C161.127 3.26367 160.998 3.5918 160.998 3.97852ZM170.701 0.392578L172.195 0.304688V2.4668C172.588 2.14453 173.019 1.9834 173.487 1.9834C174.062 1.9834 174.551 2.18555 174.955 2.58984C175.365 2.98828 175.57 3.47168 175.57 4.04004C175.57 4.57324 175.374 5.04785 174.981 5.46387C174.595 5.87988 174.108 6.08789 173.522 6.08789C173.036 6.08789 172.594 5.92969 172.195 5.61328V6H170.754V5.2793H171.431V1.10449L170.754 1.13965L170.701 0.392578ZM172.195 4.03125C172.195 4.38281 172.321 4.6875 172.573 4.94531C172.831 5.20313 173.145 5.33203 173.514 5.33203C173.877 5.33203 174.176 5.20605 174.41 4.9541C174.645 4.70215 174.762 4.39746 174.762 4.04004C174.762 3.68262 174.639 3.37793 174.393 3.12598C174.152 2.86816 173.856 2.73926 173.505 2.73926C173.142 2.73926 172.831 2.86816 172.573 3.12598C172.321 3.38379 172.195 3.68555 172.195 4.03125ZM176.168 2.01855L177.618 2.01855V4.42676C177.618 5.05371 177.858 5.36719 178.339 5.36719C178.503 5.36719 178.661 5.3291 178.813 5.25293C178.972 5.17676 179.086 5.10938 179.156 5.05078C179.227 4.98633 179.341 4.875 179.499 4.7168V2.73926H178.778V2.01855H180.264V5.2793H180.949V6H179.499V5.72754C179.13 5.99121 178.746 6.12305 178.348 6.12305C178.125 6.12305 177.908 6.08203 177.697 6C177.492 5.91211 177.331 5.79492 177.214 5.64844C176.974 5.34961 176.854 4.94238 176.854 4.42676V2.73926H176.168V2.01855ZM182.259 2.01855H184.28V5.2793H185.748V6H182.021V5.2793H183.516V2.73926H182.259V2.01855ZM183.349 1.25391V0.09375L184.28 0.09375V1.25391H183.349ZM187.33 0.454102L189.536 0.304688V5.2793H191.013V6H187.295V5.2793H188.771V1.0957L187.4 1.18359L187.33 0.454102ZM194.177 0.489258L196.277 0.304688V5.2793H196.989V6H195.513V5.63086C195.155 5.93555 194.728 6.08789 194.229 6.08789C193.655 6.08789 193.169 5.88574 192.771 5.48145C192.378 5.07129 192.182 4.58789 192.182 4.03125C192.182 3.43945 192.387 2.9502 192.797 2.56348C193.207 2.17676 193.679 1.9834 194.212 1.9834C194.692 1.9834 195.126 2.13574 195.513 2.44043V1.13086L194.098 1.23633L194.177 0.489258ZM195.495 4.04004C195.495 3.71777 195.384 3.42188 195.161 3.15234C194.938 2.87695 194.631 2.73926 194.238 2.73926C193.898 2.73926 193.605 2.85938 193.359 3.09961C193.113 3.33398 192.99 3.6416 192.99 4.02246C192.99 4.39746 193.11 4.71094 193.351 4.96289C193.597 5.20898 193.893 5.33203 194.238 5.33203C194.578 5.33203 194.871 5.20898 195.117 4.96289C195.369 4.7168 195.495 4.40918 195.495 4.04004ZM206.842 3.30176V5.2793H207.598V6H206.077V5.57813C205.579 5.94141 205.096 6.12305 204.627 6.12305C204.182 6.12305 203.812 5.98535 203.52 5.70996C203.232 5.42871 203.089 5.10938 203.089 4.75195C203.089 4.60547 203.121 4.45605 203.186 4.30371C203.25 4.14551 203.353 3.99023 203.493 3.83789C203.634 3.67969 203.842 3.55078 204.117 3.45117C204.393 3.35156 204.712 3.30176 205.075 3.30176C205.321 3.30176 205.655 3.3252 206.077 3.37207C206.077 3.26074 206.071 3.17578 206.06 3.11719C206.048 3.05273 206.019 2.97363 205.972 2.87988C205.925 2.78027 205.837 2.70703 205.708 2.66016C205.585 2.61328 205.421 2.58984 205.216 2.58984C204.812 2.58984 204.299 2.72461 203.678 2.99414L203.379 2.29102C204.123 1.98633 204.738 1.83398 205.225 1.83398C205.77 1.83398 206.174 1.96289 206.438 2.2207C206.707 2.47266 206.842 2.83301 206.842 3.30176ZM206.077 4.57617V4.11914C205.626 4.05469 205.321 4.02246 205.163 4.02246C204.929 4.02246 204.727 4.0459 204.557 4.09277C204.387 4.13965 204.258 4.19238 204.17 4.25098C204.088 4.30957 204.023 4.37988 203.977 4.46191C203.93 4.53809 203.9 4.59961 203.889 4.64648C203.883 4.6875 203.88 4.72559 203.88 4.76074C203.88 4.91895 203.953 5.05957 204.1 5.18262C204.252 5.30566 204.425 5.36719 204.618 5.36719C205.116 5.36719 205.603 5.10352 206.077 4.57617ZM213.645 0.427734L215.262 0.304688V2.3877C215.725 2.05957 216.149 1.89551 216.536 1.89551C216.97 1.89551 217.318 2.04199 217.582 2.33496C217.846 2.62793 217.978 3.00586 217.978 3.46875V5.2793H218.689V6H216.475V5.2793H217.213V3.50391C217.213 3.26367 217.157 3.06152 217.046 2.89746C216.935 2.7334 216.771 2.65137 216.554 2.65137C216.226 2.65137 215.795 2.85059 215.262 3.24902V5.2793L215.93 5.2793V6L213.768 6V5.2793H214.497V1.11328L213.706 1.16602L213.645 0.427734ZM219.173 3.97852C219.173 3.375 219.378 2.86816 219.788 2.45801C220.204 2.04199 220.758 1.83398 221.449 1.83398C222.152 1.83398 222.706 2.04492 223.11 2.4668C223.521 2.88867 223.726 3.39258 223.726 3.97852C223.726 4.55273 223.526 5.05371 223.128 5.48145C222.729 5.90918 222.17 6.12305 221.449 6.12305C220.74 6.12305 220.184 5.91211 219.779 5.49023C219.375 5.06836 219.173 4.56445 219.173 3.97852ZM219.981 3.97852C219.981 4.35938 220.11 4.6875 220.368 4.96289C220.632 5.23242 220.992 5.36719 221.449 5.36719C221.918 5.36719 222.278 5.22949 222.53 4.9541C222.788 4.67871 222.917 4.35352 222.917 3.97852C222.917 3.60352 222.788 3.27832 222.53 3.00293C222.278 2.72754 221.918 2.58984 221.449 2.58984C220.986 2.58984 220.626 2.72461 220.368 2.99414C220.11 3.26367 219.981 3.5918 219.981 3.97852ZM224.086 2.01855H225.343V2.30859C225.653 2.0332 225.935 1.89551 226.187 1.89551C226.468 1.89551 226.708 2.0332 226.907 2.30859C227.013 2.2207 227.092 2.15625 227.145 2.11523C227.203 2.07422 227.3 2.02734 227.435 1.97461C227.569 1.92188 227.704 1.89551 227.839 1.89551C228.583 1.89551 228.955 2.4375 228.955 3.52148V5.2793H229.359V6H228.19V3.52148C228.19 3.35742 228.188 3.2373 228.182 3.16113C228.176 3.08496 228.161 3 228.138 2.90625C228.12 2.8125 228.082 2.74805 228.023 2.71289C227.971 2.67188 227.897 2.65137 227.804 2.65137C227.71 2.65137 227.616 2.68066 227.522 2.73926C227.435 2.79785 227.373 2.84766 227.338 2.88867C227.309 2.92383 227.247 2.99707 227.153 3.1084V5.2793H227.672V6H226.389V3.48633C226.389 3.36914 226.386 3.27832 226.38 3.21387C226.374 3.14355 226.359 3.05859 226.336 2.95898C226.318 2.85352 226.28 2.77734 226.222 2.73047C226.169 2.67773 226.096 2.65137 226.002 2.65137C225.832 2.65137 225.615 2.77734 225.352 3.0293V5.2793H225.958V6H224.086V5.2793H224.587V2.73926H224.086V2.01855ZM234.07 4.73438L234.422 5.41113C233.602 5.88574 232.843 6.12305 232.146 6.12305C231.442 6.12305 230.892 5.9209 230.493 5.5166C230.095 5.1123 229.896 4.61719 229.896 4.03125C229.896 3.43945 230.095 2.93555 230.493 2.51953C230.897 2.10352 231.428 1.89551 232.084 1.89551C232.734 1.89551 233.244 2.08887 233.613 2.47559C233.988 2.85645 234.176 3.28418 234.176 3.75879C234.176 3.95801 234.167 4.13672 234.149 4.29492H230.704C230.733 4.41797 230.766 4.52344 230.801 4.61133C230.842 4.69336 230.909 4.80176 231.003 4.93652C231.103 5.07129 231.249 5.17676 231.442 5.25293C231.636 5.3291 231.864 5.36719 232.128 5.36719C232.708 5.36719 233.355 5.15625 234.07 4.73438ZM230.757 3.57422H233.367C233.203 2.95898 232.778 2.65137 232.093 2.65137C231.431 2.65137 230.985 2.95898 230.757 3.57422ZM240.97 2.10645H241.857V1.79883C241.857 1.64063 241.863 1.50879 241.875 1.40332C241.887 1.29199 241.919 1.16602 241.972 1.02539C242.03 0.878906 242.109 0.761719 242.209 0.673828C242.309 0.585938 242.455 0.509766 242.648 0.445313C242.848 0.380859 243.085 0.348633 243.36 0.348633C243.729 0.348633 244.213 0.398438 244.811 0.498047L244.503 1.25391C244.034 1.1543 243.621 1.10449 243.264 1.10449C243.105 1.10449 242.979 1.11621 242.886 1.13965C242.798 1.16309 242.733 1.21289 242.692 1.28906C242.657 1.36523 242.637 1.43262 242.631 1.49121C242.625 1.5498 242.622 1.65527 242.622 1.80762V2.10645H244.433V2.82715H242.622V5.2793H244.433V6H240.97V5.2793H241.857V2.82715H240.97V2.10645ZM245.865 3.97852C245.865 3.375 246.07 2.86816 246.48 2.45801C246.896 2.04199 247.45 1.83398 248.142 1.83398C248.845 1.83398 249.398 2.04492 249.803 2.4668C250.213 2.88867 250.418 3.39258 250.418 3.97852C250.418 4.55273 250.219 5.05371 249.82 5.48145C249.422 5.90918 248.862 6.12305 248.142 6.12305C247.433 6.12305 246.876 5.91211 246.472 5.49023C246.067 5.06836 245.865 4.56445 245.865 3.97852ZM246.674 3.97852C246.674 4.35938 246.803 4.6875 247.061 4.96289C247.324 5.23242 247.685 5.36719 248.142 5.36719C248.61 5.36719 248.971 5.22949 249.223 4.9541C249.48 4.67871 249.609 4.35352 249.609 3.97852C249.609 3.60352 249.48 3.27832 249.223 3.00293C248.971 2.72754 248.61 2.58984 248.142 2.58984C247.679 2.58984 247.318 2.72461 247.061 2.99414C246.803 3.26367 246.674 3.5918 246.674 3.97852ZM251.402 2.01855H253.143V2.66895C253.307 2.51074 253.444 2.3877 253.556 2.2998C253.673 2.21191 253.84 2.12402 254.057 2.03613C254.273 1.94238 254.499 1.89551 254.733 1.89551C254.938 1.89551 255.129 1.93066 255.305 2.00098C255.48 2.07129 255.604 2.13574 255.674 2.19434C255.744 2.25293 255.829 2.33203 255.929 2.43164L255.146 3.0293C255 2.77734 254.812 2.65137 254.584 2.65137C254.514 2.65137 254.438 2.66602 254.355 2.69531C254.279 2.71875 254.203 2.75098 254.127 2.79199C254.051 2.83301 253.972 2.88281 253.89 2.94141C253.813 3 253.743 3.05859 253.679 3.11719C253.614 3.16992 253.547 3.22852 253.477 3.29297C253.412 3.35742 253.359 3.41016 253.318 3.45117C253.277 3.49219 253.239 3.5332 253.204 3.57422L253.143 3.63574V5.2793H254.769V6H251.323V5.2793H252.378V2.73926H251.402V2.01855ZM263.048 0.875977H263.812V2.10645H265.816V2.82715H263.812V4.30371C263.812 4.46777 263.812 4.58496 263.812 4.65527C263.818 4.72559 263.833 4.81934 263.856 4.93652C263.88 5.04785 263.912 5.12695 263.953 5.17383C264 5.2207 264.067 5.26465 264.155 5.30566C264.249 5.34668 264.363 5.36719 264.498 5.36719C264.662 5.36719 264.832 5.34668 265.008 5.30566C265.184 5.26465 265.324 5.22363 265.43 5.18262C265.541 5.1416 265.711 5.07422 265.939 4.98047L266.221 4.86621L266.511 5.56055C265.696 5.93555 265.049 6.12305 264.568 6.12305C264.059 6.12305 263.675 5.99121 263.417 5.72754C263.259 5.55762 263.156 5.36426 263.109 5.14746C263.068 4.9248 263.048 4.64355 263.048 4.30371V2.82715H262.468V2.10645H263.048V0.875977ZM267.029 0.427734L268.646 0.304688V2.3877C269.109 2.05957 269.534 1.89551 269.921 1.89551C270.354 1.89551 270.703 2.04199 270.967 2.33496C271.23 2.62793 271.362 3.00586 271.362 3.46875V5.2793H272.074V6H269.859V5.2793H270.598V3.50391C270.598 3.26367 270.542 3.06152 270.431 2.89746C270.319 2.7334 270.155 2.65137 269.938 2.65137C269.61 2.65137 269.18 2.85059 268.646 3.24902V5.2793H269.314V6L267.152 6V5.2793L267.882 5.2793V1.11328L267.091 1.16602L267.029 0.427734ZM276.908 4.73438L277.26 5.41113C276.439 5.88574 275.681 6.12305 274.983 6.12305C274.28 6.12305 273.729 5.9209 273.331 5.5166C272.933 5.1123 272.733 4.61719 272.733 4.03125C272.733 3.43945 272.933 2.93555 273.331 2.51953C273.735 2.10352 274.266 1.89551 274.922 1.89551C275.572 1.89551 276.082 2.08887 276.451 2.47559C276.826 2.85645 277.014 3.28418 277.014 3.75879C277.014 3.95801 277.005 4.13672 276.987 4.29492H273.542C273.571 4.41797 273.604 4.52344 273.639 4.61133C273.68 4.69336 273.747 4.80176 273.841 4.93652C273.94 5.07129 274.087 5.17676 274.28 5.25293C274.474 5.3291 274.702 5.36719 274.966 5.36719C275.546 5.36719 276.193 5.15625 276.908 4.73438ZM273.595 3.57422H276.205C276.041 2.95898 275.616 2.65137 274.931 2.65137C274.269 2.65137 273.823 2.95898 273.595 3.57422ZM278.481 2.01855H280.503V5.2793H281.971V6H278.244V5.2793H279.738V2.73926H278.481V2.01855ZM279.571 1.25391V0.09375H280.503V1.25391H279.571ZM283.368 2.01855H285.108V2.66895C285.272 2.51074 285.41 2.3877 285.521 2.2998C285.639 2.21191 285.806 2.12402 286.022 2.03613C286.239 1.94238 286.465 1.89551 286.699 1.89551C286.904 1.89551 287.095 1.93066 287.271 2.00098C287.446 2.07129 287.569 2.13574 287.64 2.19434C287.71 2.25293 287.795 2.33203 287.895 2.43164L287.112 3.0293C286.966 2.77734 286.778 2.65137 286.55 2.65137C286.479 2.65137 286.403 2.66602 286.321 2.69531C286.245 2.71875 286.169 2.75098 286.093 2.79199C286.017 2.83301 285.938 2.88281 285.855 2.94141C285.779 3 285.709 3.05859 285.645 3.11719C285.58 3.16992 285.513 3.22852 285.442 3.29297C285.378 3.35742 285.325 3.41016 285.284 3.45117C285.243 3.49219 285.205 3.5332 285.17 3.57422L285.108 3.63574V5.2793H286.734V6L283.289 6V5.2793H284.344V2.73926H283.368V2.01855ZM297.606 1.89551L298.292 1.96582C298.257 2.28223 298.239 2.5752 298.239 2.84473C298.239 3.09082 298.257 3.34863 298.292 3.61816L297.554 3.71484C297.524 3.5332 297.498 3.39844 297.475 3.31055C297.451 3.2168 297.401 3.11133 297.325 2.99414C297.255 2.87109 297.144 2.7832 296.991 2.73047C296.839 2.67773 296.643 2.65137 296.402 2.65137C296.109 2.65137 295.857 2.7041 295.646 2.80957C295.441 2.90918 295.292 3.03809 295.198 3.19629C295.104 3.34863 295.037 3.49219 294.996 3.62695C294.961 3.76172 294.943 3.8877 294.943 4.00488C294.943 4.35645 295.058 4.67285 295.286 4.9541C295.521 5.22949 295.872 5.36719 296.341 5.36719C296.552 5.36719 296.777 5.32031 297.018 5.22656C297.258 5.13281 297.454 5.03906 297.606 4.94531C297.765 4.85156 297.955 4.72559 298.178 4.56738L298.6 5.16504C297.768 5.80371 297.003 6.12305 296.306 6.12305C295.673 6.12305 295.151 5.9209 294.741 5.5166C294.337 5.1123 294.135 4.61133 294.135 4.01367C294.135 3.45703 294.328 2.96484 294.715 2.53711C295.102 2.10938 295.623 1.89551 296.279 1.89551C296.73 1.89551 297.146 2.05664 297.527 2.37891L297.606 1.89551ZM299.514 2.01855H301.254V2.66895C301.418 2.51074 301.556 2.3877 301.667 2.2998C301.784 2.21191 301.951 2.12402 302.168 2.03613C302.385 1.94238 302.61 1.89551 302.845 1.89551C303.05 1.89551 303.24 1.93066 303.416 2.00098C303.592 2.07129 303.715 2.13574 303.785 2.19434C303.855 2.25293 303.94 2.33203 304.04 2.43164L303.258 3.0293C303.111 2.77734 302.924 2.65137 302.695 2.65137C302.625 2.65137 302.549 2.66602 302.467 2.69531C302.391 2.71875 302.314 2.75098 302.238 2.79199C302.162 2.83301 302.083 2.88281 302.001 2.94141C301.925 3 301.854 3.05859 301.79 3.11719C301.726 3.16992 301.658 3.22852 301.588 3.29297C301.523 3.35742 301.471 3.41016 301.43 3.45117C301.389 3.49219 301.351 3.5332 301.315 3.57422L301.254 3.63574V5.2793L302.88 5.2793V6L299.435 6V5.2793H300.489V2.73926H299.514V2.01855ZM308.874 4.73438L309.226 5.41113C308.405 5.88574 307.646 6.12305 306.949 6.12305C306.246 6.12305 305.695 5.9209 305.297 5.5166C304.898 5.1123 304.699 4.61719 304.699 4.03125C304.699 3.43945 304.898 2.93555 305.297 2.51953C305.701 2.10352 306.231 1.89551 306.888 1.89551C307.538 1.89551 308.048 2.08887 308.417 2.47559C308.792 2.85645 308.979 3.28418 308.979 3.75879C308.979 3.95801 308.971 4.13672 308.953 4.29492L305.508 4.29492C305.537 4.41797 305.569 4.52344 305.604 4.61133C305.646 4.69336 305.713 4.80176 305.807 4.93652C305.906 5.07129 306.053 5.17676 306.246 5.25293C306.439 5.3291 306.668 5.36719 306.932 5.36719C307.512 5.36719 308.159 5.15625 308.874 4.73438ZM305.561 3.57422L308.171 3.57422C308.007 2.95898 307.582 2.65137 306.896 2.65137C306.234 2.65137 305.789 2.95898 305.561 3.57422ZM313.611 3.30176V5.2793H314.367V6H312.847V5.57813C312.349 5.94141 311.865 6.12305 311.396 6.12305C310.951 6.12305 310.582 5.98535 310.289 5.70996C310.002 5.42871 309.858 5.10938 309.858 4.75195C309.858 4.60547 309.891 4.45605 309.955 4.30371C310.02 4.14551 310.122 3.99023 310.263 3.83789C310.403 3.67969 310.611 3.55078 310.887 3.45117C311.162 3.35156 311.481 3.30176 311.845 3.30176C312.091 3.30176 312.425 3.3252 312.847 3.37207C312.847 3.26074 312.841 3.17578 312.829 3.11719C312.817 3.05273 312.788 2.97363 312.741 2.87988C312.694 2.78027 312.606 2.70703 312.478 2.66016C312.354 2.61328 312.19 2.58984 311.985 2.58984C311.581 2.58984 311.068 2.72461 310.447 2.99414L310.148 2.29102C310.893 1.98633 311.508 1.83398 311.994 1.83398C312.539 1.83398 312.943 1.96289 313.207 2.2207C313.477 2.47266 313.611 2.83301 313.611 3.30176ZM312.847 4.57617V4.11914C312.396 4.05469 312.091 4.02246 311.933 4.02246C311.698 4.02246 311.496 4.0459 311.326 4.09277C311.156 4.13965 311.027 4.19238 310.939 4.25098C310.857 4.30957 310.793 4.37988 310.746 4.46191C310.699 4.53809 310.67 4.59961 310.658 4.64648C310.652 4.6875 310.649 4.72559 310.649 4.76074C310.649 4.91895 310.723 5.05957 310.869 5.18262C311.021 5.30566 311.194 5.36719 311.388 5.36719C311.886 5.36719 312.372 5.10352 312.847 4.57617ZM316.107 0.875977H316.872V2.10645H318.876V2.82715H316.872V4.30371C316.872 4.46777 316.872 4.58496 316.872 4.65527C316.878 4.72559 316.893 4.81934 316.916 4.93652C316.939 5.04785 316.972 5.12695 317.013 5.17383C317.06 5.2207 317.127 5.26465 317.215 5.30566C317.309 5.34668 317.423 5.36719 317.558 5.36719C317.722 5.36719 317.892 5.34668 318.067 5.30566C318.243 5.26465 318.384 5.22363 318.489 5.18262C318.601 5.1416 318.771 5.07422 318.999 4.98047L319.28 4.86621L319.57 5.56055C318.756 5.93555 318.108 6.12305 317.628 6.12305C317.118 6.12305 316.734 5.99121 316.477 5.72754C316.318 5.55762 316.216 5.36426 316.169 5.14746C316.128 4.9248 316.107 4.64355 316.107 4.30371V2.82715H315.527V2.10645H316.107V0.875977ZM320.994 2.01855H323.016V5.2793H324.483V6H320.757V5.2793H322.251V2.73926H320.994V2.01855ZM322.084 1.25391V0.09375H323.016V1.25391H322.084ZM325.354 2.01855H327.507V2.73926H326.918L327.92 4.92773L328.939 2.73926H328.368V2.01855H330.434V2.73926H329.748L328.21 6H327.586L326.048 2.73926H325.354V2.01855ZM331.541 2.01855L333.562 2.01855V5.2793H335.03V6H331.304V5.2793H332.798V2.73926L331.541 2.73926V2.01855ZM332.631 1.25391V0.09375H333.562V1.25391H332.631ZM337.201 0.875977H337.966V2.10645H339.97V2.82715H337.966V4.30371C337.966 4.46777 337.966 4.58496 337.966 4.65527C337.972 4.72559 337.986 4.81934 338.01 4.93652C338.033 5.04785 338.065 5.12695 338.106 5.17383C338.153 5.2207 338.221 5.26465 338.309 5.30566C338.402 5.34668 338.517 5.36719 338.651 5.36719C338.815 5.36719 338.985 5.34668 339.161 5.30566C339.337 5.26465 339.478 5.22363 339.583 5.18262C339.694 5.1416 339.864 5.07422 340.093 4.98047L340.374 4.86621L340.664 5.56055C339.85 5.93555 339.202 6.12305 338.722 6.12305C338.212 6.12305 337.828 5.99121 337.57 5.72754C337.412 5.55762 337.31 5.36426 337.263 5.14746C337.222 4.9248 337.201 4.64355 337.201 4.30371V2.82715H336.621V2.10645H337.201V0.875977ZM341.2 2.01855H343.125V2.73926H342.65L343.723 4.7959L344.9 2.73926H344.443V2.01855H346.333V2.73926H345.779L343.573 6.58008H344.232V7.30078H341.332V6.58008H342.694L343.274 5.58691L341.78 2.73926H341.2V2.01855ZM348.987 4.64648C349.192 4.64648 349.38 4.7168 349.55 4.85742C349.726 4.99219 349.813 5.1709 349.813 5.39355C349.813 5.61621 349.729 5.79785 349.559 5.93848C349.395 6.07324 349.204 6.14063 348.987 6.14063C348.776 6.14063 348.586 6.07324 348.416 5.93848C348.246 5.79785 348.161 5.61621 348.161 5.39355C348.161 5.1709 348.246 4.99219 348.416 4.85742C348.586 4.7168 348.776 4.64648 348.987 4.64648Z"
              fill="white"
            />
          </svg>